<?xml version="1.0" standalone="no"?>
<!DOCTYPE svg PUBLIC "-//W3C//DTD SVG 20010904//EN"
 "http://www.w3.org/TR/2001/REC-SVG-20010904/DTD/svg10.dtd">
<svg version="1.0" xmlns="http://www.w3.org/2000/svg"
 width="96.000000pt" height="96.000000pt" viewBox="0 0 96.000000 96.000000"
 preserveAspectRatio="xMidYMid meet">
<metadata>
Created by potrace 1.16, written by Peter Selinger 2001-2019
</metadata>
<g transform="translate(0.000000,96.000000) scale(0.100000,-0.100000)"
fill="#000000" stroke="none">
<path d="M365 926 c-162 -40 -288 -160 -337 -319 -17 -57 -20 -86 -16 -170 7
-137 40 -211 136 -306 54 -54 83 -74 146 -100 77 -32 83 -33 200 -29 112 3
126 6 190 36 121 57 226 185 255 313 15 65 13 177 -5 244 -62 240 -324 392
-569 331z m307 -48 c92 -46 167 -122 211 -215 30 -64 32 -74 32 -183 0 -109
-2 -118 -32 -180 -85 -175 -244 -270 -430 -258 -134 9 -245 68 -325 173 -64
85 -82 143 -83 270 0 103 2 114 32 177 54 114 146 197 268 241 38 13 74 17
151 15 93 -3 106 -6 176 -40z"/>
<path d="M281 602 c-17 -22 -31 -44 -31 -48 0 -5 19 -9 43 -9 53 -1 97 -12 97
-26 0 -5 -11 -22 -25 -36 -21 -24 -22 -29 -10 -43 20 -23 27 -62 16 -93 -9
-24 -16 -27 -56 -27 l-45 0 6 -43 c8 -58 12 -69 24 -62 5 3 11 25 11 48 l2 42
10 -47 c6 -27 14 -48 19 -48 4 0 8 -9 8 -21 0 -11 -4 -18 -9 -14 -5 3 -12 1
-16 -5 -3 -5 0 -10 7 -10 7 0 23 -3 35 -6 21 -6 21 -4 17 73 -3 43 -1 98 4
123 8 38 10 26 11 -77 l1 -123 26 0 c21 0 25 4 21 20 -3 11 -1 36 3 55 4 20 4
51 -1 69 -5 19 -5 52 0 80 5 25 5 49 1 51 -5 3 -6 14 -3 24 3 10 0 22 -6 25
-6 4 -10 19 -10 34 1 17 3 21 6 10 4 -15 16 -18 64 -18 56 0 59 1 59 25 0 27
-25 45 -64 45 -18 0 -24 4 -20 14 3 8 -4 24 -15 35 -18 18 -25 19 -42 10 -21
-11 -58 -9 -90 5 -12 5 -25 -4 -48 -32z"/>
</g>
</svg>
