<?xml version="1.0" standalone="no"?>
<!DOCTYPE svg PUBLIC "-//W3C//DTD SVG 20010904//EN"
 "http://www.w3.org/TR/2001/REC-SVG-20010904/DTD/svg10.dtd">
<svg version="1.0" xmlns="http://www.w3.org/2000/svg"
 width="96.000000pt" height="96.000000pt" viewBox="0 0 96.000000 96.000000"
 preserveAspectRatio="xMidYMid meet">
<metadata>
Created by potrace 1.16, written by Peter Selinger 2001-2019
</metadata>
<g transform="translate(0.000000,96.000000) scale(0.100000,-0.100000)"
fill="#000000" stroke="none">
<path d="M365 926 c-162 -40 -288 -160 -337 -319 -17 -57 -20 -86 -16 -170 7
-137 40 -211 136 -306 54 -54 83 -74 146 -100 77 -32 83 -33 200 -29 112 3
126 6 190 36 121 57 226 185 255 313 15 65 13 177 -5 244 -62 240 -324 392
-569 331z m307 -48 c223 -111 310 -365 203 -591 -26 -54 -99 -146 -109 -136
-3 3 3 23 13 45 58 120 63 138 45 151 -15 11 -20 9 -32 -10 -37 -56 -80 -62
-122 -17 -15 17 -33 30 -38 30 -29 0 -22 -25 49 -179 16 -35 28 -64 27 -65 -2
-1 -15 -9 -29 -18 -69 -43 -215 -61 -304 -37 -80 22 -156 69 -110 69 28 0 104
42 150 82 45 39 56 70 33 85 -22 14 -142 63 -154 63 -7 0 -20 -23 -29 -51 -13
-38 -21 -49 -32 -44 -13 4 -13 3 -4 -8 8 -11 7 -26 -5 -61 l-16 -48 -40 39
c-36 35 -98 142 -98 170 0 6 -6 13 -12 16 -10 3 -13 35 -13 118 0 107 2 118
32 181 54 114 146 197 268 241 38 13 74 17 151 15 93 -3 106 -6 176 -40z"/>
<path d="M670 729 c-40 -16 -80 -60 -89 -99 -5 -19 -6 -80 -3 -135 l7 -100 35
-11 c29 -10 36 -9 38 3 2 8 -3 22 -11 31 -25 30 -47 84 -47 119 0 19 4 32 8
29 5 -3 16 9 26 26 18 29 84 67 118 68 9 0 28 -15 42 -32 14 -18 32 -41 41
-50 23 -27 18 -72 -15 -129 -41 -69 -37 -84 15 -60 42 19 65 53 65 97 0 39
-38 167 -58 194 -37 51 -113 72 -172 49z"/>
</g>
</svg>
