<?xml version="1.0" standalone="no"?>
<!DOCTYPE svg PUBLIC "-//W3C//DTD SVG 20010904//EN"
 "http://www.w3.org/TR/2001/REC-SVG-20010904/DTD/svg10.dtd">
<svg version="1.0" xmlns="http://www.w3.org/2000/svg"
 width="512.000000pt" height="512.000000pt" viewBox="0 0 512.000000 512.000000"
 preserveAspectRatio="xMidYMid meet">
<metadata>
Created by potrace 1.16, written by Peter Selinger 2001-2019
</metadata>
<g transform="translate(0.000000,512.000000) scale(0.100000,-0.100000)"
fill="#000000" stroke="none">
<path d="M2245 4945 c-243 -35 -499 -110 -709 -209 -482 -227 -877 -608 -1115
-1074 -182 -358 -264 -700 -264 -1102 0 -387 73 -705 243 -1055 352 -728 1043
-1224 1853 -1330 155 -20 459 -20 614 0 391 52 765 197 1078 419 171 121 420
348 407 372 -4 7 -120 127 -257 266 -137 139 -353 359 -480 488 -127 129 -362
369 -523 533 -160 163 -292 301 -292 306 0 4 57 63 128 131 227 221 1001 979
1235 1210 l228 225 -73 75 c-186 191 -337 311 -541 432 -251 149 -532 251
-837 304 -133 23 -558 28 -695 9z m565 -316 c382 -47 742 -198 1049 -439 39
-30 71 -58 71 -61 0 -4 -357 -357 -792 -785 -436 -428 -794 -781 -795 -784 -1
-3 349 -363 777 -800 l779 -795 -37 -34 c-122 -111 -415 -270 -626 -340 -897
-298 -1873 31 -2396 809 -188 279 -297 582 -345 952 -10 79 -7 357 5 453 30
239 93 452 200 670 305 625 900 1056 1590 1150 118 16 407 19 520 4z"/>
<path d="M2080 3986 c-80 -17 -141 -50 -199 -108 -154 -154 -154 -402 -1 -555
156 -156 404 -157 559 -2 226 226 103 610 -213 668 -70 13 -75 13 -146 -3z
m157 -266 c87 -52 83 -198 -6 -245 -98 -50 -211 16 -211 123 0 85 56 142 140
142 27 0 58 -8 77 -20z"/>
</g>
</svg>
